<?xml version="1.0" standalone="no"?><!DOCTYPE svg PUBLIC "-//W3C//DTD SVG 1.1//EN" "http://www.w3.org/Graphics/SVG/1.1/DTD/svg11.dtd"><svg t="1610176568492" class="icon" viewBox="0 0 1024 1024" version="1.1" xmlns="http://www.w3.org/2000/svg" p-id="4462" width="48" height="48" xmlns:xlink="http://www.w3.org/1999/xlink"><defs><style type="text/css"></style></defs><path d="M871.303 158.669c-196.702-196.741-516.783-196.741-713.484 0-196.739 196.702-196.739 516.783 0 713.484 196.702 196.741 516.783 196.741 713.484 0 196.739-196.702 196.739-516.783 0-713.484v0zM812.949 383.947l-338.67 360.551c-2.12 1.975-4.352 3.29-5.998 4.241-1.832 1.211-3.11 2.231-4.981 3.002-4.279 1.832-8.813 2.742-13.572 2.742-4.354 0-8.633-0.804-12.806-2.415l-4.025-2.34c-2.162-1.137-4.5-2.342-6.734-4.321v-0.073c-0.147-0.107-0.294-0.254-0.436-0.399l-1.135-1.098-192.241-189.419c-6.658-6.513-10.424-15.299-10.5-24.624-0.033-9.402 3.51-18.222 10.097-24.916 13.173-13.319 36.261-13.427 49.576-0.294l167.251 164.758 313.161-333.396c12.699-13.508 36.041-14.236 49.507-1.577 6.846 6.48 10.792 15.187 11.052 24.59 0.256 9.33-3.11 18.214-9.549 24.989v0zM812.949 383.947z" p-id="4463" fill="#06B48D"></path></svg>