<?xml version="1.0" standalone="no"?><!DOCTYPE svg PUBLIC "-//W3C//DTD SVG 1.1//EN" "http://www.w3.org/Graphics/SVG/1.1/DTD/svg11.dtd"><svg t="1610194295377" class="icon" viewBox="0 0 1024 1024" version="1.1" xmlns="http://www.w3.org/2000/svg" p-id="6163" width="48" height="48" xmlns:xlink="http://www.w3.org/1999/xlink"><defs><style type="text/css"></style></defs><path d="M316.3136 347.8784l43.4304 0 0 328.2304-43.4304 0 0-328.2304Z" p-id="6164" fill="#3777F4"></path><path d="M655.9744 376.0896c-13.2864-11.3408-29.3376-19.1744-48.1408-23.5008-13.4272-3.136-32.9088-4.7104-58.432-4.7104l-113.0752 0 0 328.2304 118.4384 0c19.8528 0 37.4272-1.856 52.736-5.5936 15.296-3.7376 28.352-9.216 39.1808-16.4608 10.816-7.2448 20.7872-17.1776 29.888-29.7856 9.1008-12.608 16.5632-28.544 22.4-47.7952 5.824-19.264 8.7296-41.344 8.7296-66.2784 0-29.248-4.288-55.2704-12.864-78.0288C686.2336 409.4208 673.28 390.72 655.9744 376.0896zM654.2848 572.7872c-5.7472 17.3824-13.76 31.232-24.064 41.536-7.3216 7.3088-17.1264 12.992-29.44 17.024-12.3136 4.032-29.2992 6.0416-50.944 6.0416l-70.08 0L479.7568 386.6112l68.9664 0c25.8304 0 44.544 2.24 56.2048 6.72 16.1152 6.272 29.8112 18.624 41.088 37.056 11.264 18.4448 16.9088 44.8256 16.9088 79.1424C662.912 534.3104 660.032 555.4048 654.2848 572.7872z" p-id="6165" fill="#3777F4"></path><path d="M512 51.2C257.5104 51.2 51.2 257.5104 51.2 512c0 254.4896 206.3104 460.8 460.8 460.8s460.8-206.3104 460.8-460.8C972.8 257.5104 766.4896 51.2 512 51.2zM512 951.8592C269.4656 951.8592 72.1408 754.5344 72.1408 512 72.1408 269.4656 269.4656 72.1408 512 72.1408S951.8592 269.4656 951.8592 512C951.8592 754.5344 754.5344 951.8592 512 951.8592z" p-id="6166" fill="#3777F4"></path></svg>