<?xml version="1.0" standalone="no"?><!DOCTYPE svg PUBLIC "-//W3C//DTD SVG 1.1//EN" "http://www.w3.org/Graphics/SVG/1.1/DTD/svg11.dtd"><svg t="1610202413355" class="icon" viewBox="0 0 1024 1024" version="1.1" xmlns="http://www.w3.org/2000/svg" p-id="3478" width="48" height="48" xmlns:xlink="http://www.w3.org/1999/xlink"><defs><style type="text/css"></style></defs><path d="M533.333333 128a405.333333 405.333333 0 1 0 0 810.666667 405.333333 405.333333 0 0 0 0-810.666667zM402.389333 676.138667H359.04V347.861333h43.434667v328.277334z m339.242667-99.669334c-5.802667 19.285333-13.312 35.2-22.4 47.786667a118.954667 118.954667 0 0 1-29.866667 29.824c-10.837333 7.253333-23.893333 12.714667-39.210666 16.469333-15.274667 3.712-32.853333 5.546667-52.736 5.546667h-118.442667V347.904h113.066667c25.557333 0 45.013333 1.578667 58.453333 4.693333 18.773333 4.352 34.858667 12.202667 48.128 23.509334 17.322667 14.634667 30.293333 33.322667 38.826667 56.106666 8.618667 22.784 12.885333 48.768 12.885333 78.037334 0 24.917333-2.901333 47.018667-8.704 66.261333zM647.594667 393.386667c-11.648-4.48-30.378667-6.741333-56.192-6.741334h-68.992v250.794667h70.101333c21.632 0 38.613333-2.005333 50.944-6.058667 12.288-4.010667 22.101333-9.685333 29.44-17.024 10.282667-10.282667 18.346667-24.149333 24.064-41.514666 5.717333-17.408 8.618667-38.485333 8.618667-63.274667 0-34.304-5.632-60.714667-16.896-79.146667-11.264-18.432-24.96-30.762667-41.088-37.034666z" p-id="3479" fill="#06B48D"></path></svg>